<svg width="20" height="20" viewBox="0 0 20 20" xmlns="http://www.w3.org/2000/svg" xmlns:xlink="http://www.w3.org/1999/xlink"><title>icon</title><defs><path d="M8 16A8 8 0 1 0 8 0a8 8 0 0 0 0 16z" id="a"/><linearGradient x1="50%" y1="0%" x2="50%" y2="100%" id="c"><stop stop-color="#F5515F" offset="0%"/><stop stop-color="#9F031B" offset="100%"/></linearGradient></defs><g fill="none" fill-rule="evenodd"><path d="M0 0h20v20H0z"/><g transform="translate(2 2)"><mask id="b" fill="#fff"><use xlink:href="#a"/></mask><g mask="url(#b)" stroke="#FFF" fill="url(#c)"><path d="M8 16A8 8 0 1 0 8 0a8 8 0 0 0 0 16z"/></g></g><path d="M10 7a1.334 1.334 0 1 0 .073-2.667A1.334 1.334 0 0 0 10 7z" fill="#FFF"/></g></svg>